<svg xmlns="http://www.w3.org/2000/svg" version="1.1" xmlns:xlink="http://www.w3.org/1999/xlink" width="512" height="512"><svg xmlns="http://www.w3.org/2000/svg" version="1.1" xmlns:xlink="http://www.w3.org/1999/xlink" width="512" height="512"><svg xmlns="http://www.w3.org/2000/svg" enable-background="new 0 0 512 512" viewBox="0 0 512 512" id="freelance">
  <path fill="#B25846" d="M120,136H40c-4.418,0-8-3.582-8-8s3.582-8,8-8h80c4.418,0,8,3.582,8,8S124.418,136,120,136z"></path>
  <path fill="#5FB9ED" d="M298.589,284.809L232,264h-80l-66.589,20.809C48.876,296.226,24,330.062,24,368.34v104.921
	C24,481.401,30.599,488,38.739,488H360V368.34C360,330.062,335.124,296.226,298.589,284.809z"></path>
  <path fill="#519DC9" d="M56.143,300.584C36.24,316.859,24,341.501,24,368.34v104.921C24,481.401,30.599,488,38.739,488H144
		C70.748,475.791,58.049,356.456,56.143,300.584z"></path>
  <path fill="#3E799C" d="M88,392c-4.418,0-8,3.582-8,8v88h16v-88C96,395.582,92.418,392,88,392z"></path>
  <path fill="#EACCB6" d="M114.166 172.542L128 176v-56h-22.785c-9.012 0-15.867 8.092-14.385 16.981l2.091 12.548C94.791 160.745 103.135 169.784 114.166 172.542zM269.834 172.542L256 176v-56h22.785c9.012 0 15.867 8.092 14.385 16.981l-2.091 12.548C289.209 160.745 280.865 169.784 269.834 172.542zM192 304L192 304c-22.091 0-40-17.909-40-40v-72h80v72C232 286.091 214.091 304 192 304z"></path>
  <path fill="#CBB19E" d="M160.673,192H152v72c0,22.091,17.909,40,40,40l0,0c0.945,0,1.88-0.044,2.808-0.109
		C158.39,268.877,159.122,220.744,160.673,192z"></path>
  <path fill="#F5D6BF" d="M200.942,246.549L200.942,246.549c-5.804,1.935-12.08,1.935-17.884,0l0,0
	C145.4,233.996,120,198.755,120,159.061V72h144v87.061C264,198.755,238.6,233.996,200.942,246.549z"></path>
  <path fill="#FF7E64" d="M280,128H104V68.026C104,43.711,123.711,24,148.026,24h87.949C260.289,24,280,43.711,280,68.026V128z"></path>
  <path fill="#D66A54" d="M104,68.026V128h55.521c-28.305-30.384-34.928-69.775-35.627-96.791C111.915,39.076,104,52.623,104,68.026z
		"></path>
  <rect width="80" height="24" x="152" y="80" fill="#74392E"></rect>
  <path fill="#614427" d="M176.005 160c-2.301 0-4.583-.986-6.165-2.896-2.728-3.291-6.222-5.104-9.84-5.104s-7.112 1.812-9.84 5.104c-2.817 3.4-7.859 3.877-11.264 1.057-3.402-2.818-3.876-7.861-1.057-11.264C143.66 139.869 151.531 136 160 136s16.34 3.869 22.16 10.896c2.819 3.402 2.346 8.445-1.057 11.264C179.611 159.397 177.803 160 176.005 160zM240.005 160c-2.301 0-4.583-.986-6.165-2.896-2.728-3.291-6.222-5.104-9.84-5.104s-7.112 1.812-9.84 5.104c-2.816 3.4-7.86 3.877-11.264 1.057-3.402-2.818-3.876-7.861-1.057-11.264C207.66 139.869 215.531 136 224 136s16.34 3.869 22.16 10.896c2.819 3.402 2.346 8.445-1.057 11.264C243.611 159.397 241.803 160 240.005 160zM192 216c-8.469 0-16.34-3.869-22.16-10.896-2.819-3.402-2.346-8.445 1.057-11.264 3.402-2.82 8.445-2.347 11.264 1.057 2.728 3.291 6.222 5.104 9.84 5.104s7.112-1.812 9.84-5.104c2.816-3.401 7.858-3.879 11.264-1.057 3.402 2.818 3.876 7.861 1.057 11.264C208.34 212.131 200.469 216 192 216z"></path>
  <path fill="#25495D" d="M288,488h-88v-16.125c0-8.767,7.107-15.875,15.875-15.875H288V488z"></path>
  <path fill="#3D7899" d="M488,488H264V338c0-5.523,4.477-10,10-10h204c5.523,0,10,4.477,10,10V488z"></path>
  <path fill="#305E78" d="M288.792,328H274c-5.523,0-10,4.477-10,10v150h73.751C283.893,416.453,283.203,358.667,288.792,328z"></path>
  <ellipse cx="376" cy="400" fill="#FF7E64" rx="32" ry="24"></ellipse>
  <path fill="#EACCB6" d="M232,488h-64v-48h38.088C220.399,440,232,451.601,232,465.912V488z"></path>
  <path fill="#55A5D3" d="M176,424H24l0,49.262C24,481.402,30.599,488,38.739,488H176V424z"></path>
  <path fill="#407B9E" d="M38.042,424H24l0,49.262C24,481.402,30.599,488,38.739,488h24.655
		C39.794,471.645,37.105,442.244,38.042,424z"></path>
</svg></svg><style>@media (prefers-color-scheme: light) { :root { filter: none; } }
@media (prefers-color-scheme: dark) { :root { filter: none; } }
</style></svg>